# xmcd
#
# Track frame offsets: 
#        150
#        20110
#        39172
#        64329
#        94662
#        138777
#        164964
#        191541
#        222048
#
# Disc length: 3379 seconds
#
# Revision: 0
# Processed by: cddbd v1.5.2PL0 Copyright (c) Steve Scherf et al.
# Submitted via: ExactAudioCopy v0.99pb4
#
DISCID=7d0d3109
DTITLE=Carlos Del Junco   - Mongrel Mash
DYEAR=2011
DGENRE=Blues
TTITLE0=The Crazy Bastard
TTITLE1=My Favourite Uncle
TTITLE2=Mojo
TTITLE3=Heddon Tadpolly Spook
TTITLE4=The Field
TTITLE5=Slick
TTITLE6=Mariachi
TTITLE7=A Fool's Alibi
TTITLE8=Lil' Laptop
EXTD=
EXTT0=
EXTT1=
EXTT2=
EXTT3=
EXTT4=
EXTT5=
EXTT6=
EXTT7=
EXTT8=
PLAYORDER=
